<svg viewBox="0 0 96 96" fill="none" xmlns="http://www.w3.org/2000/svg">
  <g filter="url(#shadow)">
    <path d="M64 8H32C18.745 8 8 18.745 8 32V64C8 77.255 18.745 88 32 88H64C77.255 88 88 77.255 88 64V32C88 18.745 77.255 8 64 8Z" fill="#F0EBFF"/>
    <path d="M49 70C61.15 70 71 60.15 71 48C71 35.85 61.15 26 49 26C36.85 26 27 35.85 27 48C27 60.15 36.85 70 49 70Z" fill="#7B61FF"/>
    <path d="M20 55C35 63 65 60 80 47" stroke="#FFB25B" stroke-width="7" stroke-linecap="round"/>
    <circle cx="40" cy="40" r="5" fill="#B8A9FF"/>
    <path d="M74 23L76 28L81 30L76 32L74 37L72 32L67 30L72 28L74 23Z" fill="#F4514E"/>
  </g>
  <defs><filter id="shadow" x="-6" y="-4" width="108" height="108" filterUnits="userSpaceOnUse"><feDropShadow dy="2" stdDeviation="3" flood-color="#14211A" flood-opacity=".06"/></filter></defs>
</svg>